<mxfile host="app.diagrams.net" agent="Mozilla/5.0 (Windows NT 10.0; Win64; x64) AppleWebKit/537.36 (KHTML, like Gecko) Chrome/137.0.0.0 Safari/537.36" version="27.1.4">
  <diagram name="Page-1" id="iXAbI2DZCOITZ1WkmRE5">
    <mxGraphModel dx="789" dy="967" grid="1" gridSize="10" guides="1" tooltips="1" connect="1" arrows="1" fold="1" page="1" pageScale="1" pageWidth="850" pageHeight="1100" math="0" shadow="0">
      <root>
        <mxCell id="0" />
        <mxCell id="1" parent="0" />
        <mxCell id="dJY-Xx-B1RpX3n3qujXj-1" value="Gender (X)" style="rounded=0;whiteSpace=wrap;html=1;fontFamily=Times New Roman;fontSize=20;strokeWidth=2;" parent="1" vertex="1">
          <mxGeometry x="70" y="295" width="200" height="60" as="geometry" />
        </mxCell>
        <mxCell id="dJY-Xx-B1RpX3n3qujXj-3" value="Attitudes&lt;div&gt;&amp;nbsp;(C, &lt;i&gt;k&lt;/i&gt; = 4)&lt;/div&gt;" style="ellipse;whiteSpace=wrap;html=1;aspect=fixed;fontFamily=Times New Roman;fontSize=20;strokeWidth=2;" parent="1" vertex="1">
          <mxGeometry x="365" y="80" width="130" height="130" as="geometry" />
        </mxCell>
        <mxCell id="dJY-Xx-B1RpX3n3qujXj-9" value="" style="endArrow=classic;html=1;rounded=0;exitX=1;exitY=0.5;exitDx=0;exitDy=0;entryX=0;entryY=0.5;entryDx=0;entryDy=0;strokeWidth=2;" parent="1" source="dJY-Xx-B1RpX3n3qujXj-1" edge="1">
          <mxGeometry width="50" height="50" relative="1" as="geometry">
            <mxPoint x="400" y="600" as="sourcePoint" />
            <mxPoint x="580" y="325" as="targetPoint" />
          </mxGeometry>
        </mxCell>
        <mxCell id="dJY-Xx-B1RpX3n3qujXj-11" value="" style="endArrow=classic;html=1;rounded=0;exitX=0.5;exitY=1;exitDx=0;exitDy=0;strokeWidth=2;" parent="1" source="dJY-Xx-B1RpX3n3qujXj-3" edge="1">
          <mxGeometry width="50" height="50" relative="1" as="geometry">
            <mxPoint x="290" y="345" as="sourcePoint" />
            <mxPoint x="430" y="320" as="targetPoint" />
          </mxGeometry>
        </mxCell>
        <mxCell id="tyTo7xCLQMP3Q11Xopob-1" value="Math Scores (Y)" style="rounded=0;whiteSpace=wrap;html=1;fontFamily=Times New Roman;fontSize=20;strokeWidth=2;" vertex="1" parent="1">
          <mxGeometry x="580" y="295" width="200" height="60" as="geometry" />
        </mxCell>
      </root>
    </mxGraphModel>
  </diagram>
</mxfile>
